<?xml version="1.0"?><svg fill="#000000" xmlns="http://www.w3.org/2000/svg" viewBox="0 0 50 50" width="50px" height="50px">    <path d="M36.449,5.047C32.981,3.054,28.022,2,24,2c-4.021,0-6.981,1.054-10.451,3.048C6.426,9.146,2,16.791,2,25 c0,8.159,4.385,15.78,11.443,19.89C16.938,46.925,20.935,48,25,48c4.057,0,8.046-1.071,11.536-3.099C43.607,40.795,48,33.169,48,25 C48,16.791,43.574,9.146,36.449,5.047z M23,25c0-1.103,0.897-2,2-2s2,0.897,2,2s-0.897,2-2,2S23,26.103,23,25z M33.885,5.977 l-7.89,15.163C25.675,21.058,25.345,21,25,21c-0.352,0-0.687,0.06-1.012,0.146L16.115,5.977C18.884,4.685,21.919,4,25,4 C28.081,4,31.117,4.685,33.885,5.977z M4.034,26h17.108c0.181,0.696,0.532,1.325,1.025,1.82l-8.958,14.557 C7.77,38.675,4.351,32.58,4.034,26z M36.79,42.377l-8.973-14.541c0.501-0.498,0.858-1.132,1.041-1.835h17.108 C45.649,32.582,42.23,38.675,36.79,42.377z"/></svg>